<svg width="190" height="190" viewBox="0 0 190 190" fill="none" xmlns="http://www.w3.org/2000/svg">
<rect width="190" height="190" fill="white"/>
<path fill-rule="evenodd" clip-rule="evenodd" d="M29 70V154H64V95.5H74V144H81V154H91V137H85V116H106V137H100V154H110V144H117V96H126V154H162V70H170L119.5 11L95 36L71 11L21 70H29ZM81 91H77V111H81V91ZM89 91H85V111H89V91ZM97 111H93V91H97V111ZM105 91H101V111H105V91ZM113 91H109V111H113V91ZM120 54H114V48H120V54ZM127 48H121V54H127V48ZM121 61V55H127V61H121ZM114 55H120V61H114V55ZM71 61H77V55H71V61ZM77 54H71V48H77V54ZM70 48V54H64V48H70ZM64 55H70V61H64V55Z" fill="#4D94FB"/>
<path d="M81 156H110V162H81V156Z" fill="#4D94FB"/>
<path d="M84 164V171H107V164H84Z" fill="#4D94FB"/>
<path d="M87 173V179H104V173H87Z" fill="#4D94FB"/>
<path d="M81 156H110V162H81V156Z" fill="#4D94FB"/>
</svg>
