<svg width="369" height="200" viewBox="0 0 369 200" fill="none" xmlns="http://www.w3.org/2000/svg">
<path fill-rule="evenodd" clip-rule="evenodd" d="M8 59V143H43V84.5H53V133H60V143H70V126H64V105H85V126H79V143H89V133H96V85H105V143H141V59H149L98.5 0L74 25L50 0L0 59H8ZM60 80H56V100H60V80ZM68 80H64V100H68V80ZM76 100H72V80H76V100ZM84 80H80V100H84V80ZM92 80H88V100H92V80ZM99 43H93V37H99V43ZM106 37H100V43H106V37ZM100 50V44H106V50H100ZM93 44H99V50H93V44ZM50 50H56V44H50V50ZM56 43H50V37H56V43ZM49 37V43H43V37H49ZM43 44H49V50H43V44Z" fill="#4D94FB"/>
<path fill-rule="evenodd" clip-rule="evenodd" d="M149 143H175L182 129H226L233 143H259C239.174 100.794 225.293 60.5565 212.5 60.5H196.5C183.145 60.6238 169.944 95.9928 149 143ZM192 109L204 86.5L216 109H192Z" fill="#2B2B2B"/>
<path d="M268 60.5L303.5 102L268 143H297.5L318 119.5L339 143H369L333 102L368 60.5H339.5L318 84.5L297.5 60.5H268Z" fill="#2B2B2B"/>
<path d="M8 156H20V200H8V156Z" fill="#2B2B2B"/>
<path d="M28 200V161C28 157.5 29.5 156 33 156H40L70 183V170H83V195C83 198.5 82.5 200 78.5 200H71L41 172.5V200H28Z" fill="#2B2B2B"/>
<path d="M60 145H89V151H60V145Z" fill="#4D94FB"/>
<path d="M63 153V160H86V153H63Z" fill="#4D94FB"/>
<path d="M66 162V168H83V162H66Z" fill="#4D94FB"/>
<path d="M145 156V168H104V172H138.5C142 172 145 175 145 178.5V194.5C145 198 143 200 139.5 200H91V188H132V183.5H98C94.5 183.5 91 182 91 178.5V161.5C91 158 93 156 96.5 156H145Z" fill="#2B2B2B"/>
<path d="M172 168V200H185V168H205V156H152V168H172Z" fill="#2B2B2B"/>
<path fill-rule="evenodd" clip-rule="evenodd" d="M199 200H213L217 192.5H239L244 200H257C245.5 172 237 156 233.5 156H222C219 156 211.08 172.435 199 200ZM222 182L228 170L234 182H222Z" fill="#2B2B2B"/>
<path d="M319.5 156V194C319.5 197.5 322 200 325.5 200H368.5V188H332.5V156H319.5Z" fill="#2B2B2B"/>
<path d="M263 156V194C263 197.5 265.5 200 269 200H312V188H276V156H263Z" fill="#2B2B2B"/>
</svg>
